{
  "accessors": [
    {
      "bufferView": 2,
      "componentType": 5126,
      "count": 19621,
      "max": [
        1.417099952697754,
        2.3316009044647217,
        3.9958300590515137
      ],
      "min": [
        -1.454699993133545,
        -1.9076989889144897,
        1.4584300518035889
      ],
      "type": "VEC3"
    },
    {
      "bufferView": 2,
      "byteOffset": 235452,
      "componentType": 5126,
      "count": 19621,
      "max": [
        1.0,
        1.0,
        1.0
      ],
      "min": [
        -1.0,
        -1.0,
        -1.0
      ],
      "type": "VEC3"
    },
    {
      "bufferView": 3,
      "componentType": 5126,
      "count": 19621,
      "max": [
        1.0,
        1.0,
        1.0,
        1.0
      ],
      "min": [
        -1.0,
        -1.0,
        -1.0,
        -1.0
      ],
      "type": "VEC4"
    },
    {
      "bufferView": 1,
      "componentType": 5126,
      "count": 19621,
      "max": [
        0.9980000257492065,
        -0.003599999938160181
      ],
      "min": [
        0.0019000000320374966,
        -0.9961000084877014
      ],
      "type": "VEC2"
    },
    {
      "bufferView": 0,
      "componentType": 5125,
      "count": 45249,
      "type": "SCALAR"
    },
    {
      "bufferView": 2,
      "byteOffset": 470904,
      "componentType": 5126,
      "count": 1004,
      "max": [
        -1.117799997329712,
        3.319000005722046,
        1.301200032234192
      ],
      "min": [
        -1.8163000345230103,
        -3.2760000228881836,
        0.0024999999441206455
      ],
      "type": "VEC3"
    },
    {
      "bufferView": 2,
      "byteOffset": 482952,
      "componentType": 5126,
      "count": 1004,
      "max": [
        1.0,
        0.9999871253967285,
        1.0
      ],
      "min": [
        -1.0,
        -0.9999932050704956,
        -1.0
      ],
      "type": "VEC3"
    },
    {
      "bufferView": 3,
      "byteOffset": 313936,
      "componentType": 5126,
      "count": 1004,
      "max": [
        1.0,
        0.9984757304191589,
        1.0,
        1.0
      ],
      "min": [
        -1.0,
        -0.9984757304191589,
        -1.0,
        1.0
      ],
      "type": "VEC4"
    },
    {
      "bufferView": 1,
      "byteOffset": 156968,
      "componentType": 5126,
      "count": 1004,
      "max": [
        0.9961000084877014,
        18.02720069885254
      ],
      "min": [
        0.0038999998942017555,
        -0.9728000164031982
      ],
      "type": "VEC2"
    },
    {
      "bufferView": 0,
      "byteOffset": 180996,
      "componentType": 5125,
      "count": 2940,
      "type": "SCALAR"
    },
    {
      "bufferView": 2,
      "byteOffset": 495000,
      "componentType": 5126,
      "count": 1004,
      "max": [
        1.8163000345230103,
        3.319000005722046,
        1.301200032234192
      ],
      "min": [
        1.117799997329712,
        -3.2760000228881836,
        0.0024999999441206455
      ],
      "type": "VEC3"
    },
    {
      "bufferView": 2,
      "byteOffset": 507048,
      "componentType": 5126,
      "count": 1004,
      "max": [
        1.0,
        0.9999871253967285,
        1.0
      ],
      "min": [
        -1.0,
        -0.9999932050704956,
        -1.0
      ],
      "type": "VEC3"
    },
    {
      "bufferView": 3,
      "byteOffset": 330000,
      "componentType": 5126,
      "count": 1004,
      "max": [
        1.0,
        0.9984757304191589,
        1.0,
        -1.0
      ],
      "min": [
        -1.0,
        -0.9984757304191589,
        -1.0,
        -1.0
      ],
      "type": "VEC4"
    },
    {
      "bufferView": 1,
      "byteOffset": 165000,
      "componentType": 5126,
      "count": 1004,
      "max": [
        0.9961000084877014,
        18.02720069885254
      ],
      "min": [
        0.0038999998942017555,
        -0.9728000164031982
      ],
      "type": "VEC2"
    },
    {
      "bufferView": 0,
      "byteOffset": 192756,
      "componentType": 5125,
      "count": 2940,
      "type": "SCALAR"
    },
    {
      "bufferView": 2,
      "byteOffset": 519096,
      "componentType": 5126,
      "count": 1194,
      "max": [
        0.4540669918060303,
        -1.6291990280151367,
        1.9927469491958618
      ],
      "min": [
        -0.16443300247192383,
        -6.119198799133301,
        1.558547019958496
      ],
      "type": "VEC3"
    },
    {
      "bufferView": 2,
      "byteOffset": 533424,
      "componentType": 5126,
      "count": 1194,
      "max": [
        1.0,
        1.0,
        1.0
      ],
      "min": [
        -0.999992311000824,
        -1.0,
        -0.9997978806495667
      ],
      "type": "VEC3"
    },
    {
      "bufferView": 3,
      "byteOffset": 346064,
      "componentType": 5126,
      "count": 1194,
      "max": [
        0.9999996423721313,
        1.0,
        1.0,
        1.0
      ],
      "min": [
        -1.0,
        -1.0,
        -1.0,
        1.0
      ],
      "type": "VEC4"
    },
    {
      "bufferView": 1,
      "byteOffset": 173032,
      "componentType": 5126,
      "count": 1194,
      "max": [
        0.9954000115394592,
        -0.0052999998442828655
      ],
      "min": [
        0.0026000000070780516,
        -0.9955000281333923
      ],
      "type": "VEC2"
    },
    {
      "bufferView": 0,
      "byteOffset": 204516,
      "componentType": 5125,
      "count": 3855,
      "type": "SCALAR"
    },
    {
      "bufferView": 2,
      "byteOffset": 547752,
      "componentType": 5126,
      "count": 6943,
      "max": [
        1.80649995803833,
        3.2688000202178955,
        1.2509000301361084
      ],
      "min": [
        1.1237000226974487,
        -3.178100109100342,
        0.09399999678134918
      ],
      "type": "VEC3"
    },
    {
      "bufferView": 2,
      "byteOffset": 631068,
      "componentType": 5126,
      "count": 6943,
      "max": [
        1.0,
        1.0,
        1.0
      ],
      "min": [
        -1.0,
        -1.0,
        -1.0
      ],
      "type": "VEC3"
    },
    {
      "bufferView": 3,
      "byteOffset": 365168,
      "componentType": 5126,
      "count": 6943,
      "max": [
        1.0,
        1.0,
        1.0,
        1.0
      ],
      "min": [
        -1.0,
        -1.0,
        -1.0,
        1.0
      ],
      "type": "VEC4"
    },
    {
      "bufferView": 1,
      "byteOffset": 182584,
      "componentType": 5126,
      "count": 6943,
      "max": [
        0.9954000115394592,
        -0.007799999788403511
      ],
      "min": [
        0.0038999998942017555,
        -0.9922000169754028
      ],
      "type": "VEC2"
    },
    {
      "bufferView": 0,
      "byteOffset": 219936,
      "componentType": 5125,
      "count": 17487,
      "type": "SCALAR"
    },
    {
      "bufferView": 2,
      "byteOffset": 714384,
      "componentType": 5126,
      "count": 6943,
      "max": [
        -1.1237000226974487,
        3.2688000202178955,
        1.2509000301361084
      ],
      "min": [
        -1.80649995803833,
        -3.178100109100342,
        0.09399999678134918
      ],
      "type": "VEC3"
    },
    {
      "bufferView": 2,
      "byteOffset": 797700,
      "componentType": 5126,
      "count": 6943,
      "max": [
        1.0,
        1.0,
        1.0
      ],
      "min": [
        -1.0,
        -1.0,
        -1.0
      ],
      "type": "VEC3"
    },
    {
      "bufferView": 3,
      "byteOffset": 476256,
      "componentType": 5126,
      "count": 6943,
      "max": [
        1.0,
        1.0,
        1.0,
        -1.0
      ],
      "min": [
        -1.0,
        -1.0,
        -1.0,
        -1.0
      ],
      "type": "VEC4"
    },
    {
      "bufferView": 1,
      "byteOffset": 238128,
      "componentType": 5126,
      "count": 6943,
      "max": [
        0.9954000115394592,
        -0.007799999788403511
      ],
      "min": [
        0.0038999998942017555,
        -0.9922000169754028
      ],
      "type": "VEC2"
    },
    {
      "bufferView": 0,
      "byteOffset": 289884,
      "componentType": 5125,
      "count": 17487,
      "type": "SCALAR"
    },
    {
      "bufferView": 2,
      "byteOffset": 881016,
      "componentType": 5126,
      "count": 32224,
      "max": [
        1.8801000118255615,
        3.5058999061584473,
        1.6433299779891968
      ],
      "min": [
        -1.8801000118255615,
        -3.416100025177002,
        0.3813300132751465
      ],
      "type": "VEC3"
    },
    {
      "bufferView": 2,
      "byteOffset": 1267704,
      "componentType": 5126,
      "count": 32224,
      "max": [
        1.0,
        1.0,
        1.0
      ],
      "min": [
        -1.0,
        -1.0,
        -1.0
      ],
      "type": "VEC3"
    },
    {
      "bufferView": 3,
      "byteOffset": 587344,
      "componentType": 5126,
      "count": 32224,
      "max": [
        1.0,
        1.0,
        1.0,
        1.0
      ],
      "min": [
        -1.0,
        -1.0,
        -1.0,
        -1.0
      ],
      "type": "VEC4"
    },
    {
      "bufferView": 1,
      "byteOffset": 293672,
      "componentType": 5126,
      "count": 32224,
      "max": [
        0.9980000257492065,
        -0.0012000000569969416
      ],
      "min": [
        0.0019000000320374966,
        -0.9980999827384949
      ],
      "type": "VEC2"
    },
    {
      "bufferView": 0,
      "byteOffset": 359832,
      "componentType": 5125,
      "count": 74856,
      "type": "SCALAR"
    }
  ],
  "asset": {
    "extras": {
      "author": "KojfDiscord (https://sketchfab.com/KojfDiscord)",
      "license": "CC-BY-4.0 (http://creativecommons.org/licenses/by/4.0/)",
      "source": "https://sketchfab.com/3d-models/nemesis-mbt-armored-warfare-7e96981ab23a401485fb1ff5d8ce5cb6",
      "title": "Nemesis MBT (Armored Warfare)"
    },
    "generator": "Sketchfab-16.63.0",
    "version": "2.0"
  },
  "bufferViews": [
    {
      "buffer": 0,
      "byteLength": 659256,
      "name": "floatBufferViews",
      "target": 34963
    },
    {
      "buffer": 0,
      "byteLength": 551464,
      "byteOffset": 659256,
      "byteStride": 8,
      "name": "floatBufferViews",
      "target": 34962
    },
    {
      "buffer": 0,
      "byteLength": 1654392,
      "byteOffset": 1210720,
      "byteStride": 12,
      "name": "floatBufferViews",
      "target": 34962
    },
    {
      "buffer": 0,
      "byteLength": 1102928,
      "byteOffset": 2865112,
      "byteStride": 16,
      "name": "floatBufferViews",
      "target": 34962
    }
  ],
  "buffers": [
    {
      "byteLength": 3968040,
      "uri": "scene.bin"
    }
  ],
  "extensionsRequired": [
    "KHR_materials_pbrSpecularGlossiness"
  ],
  "extensionsUsed": [
    "KHR_materials_pbrSpecularGlossiness"
  ],
  "images": [
    {
      "uri": "textures/119db3ea-1265-49bc-8e84-5c51220a31fc_diffuse.png"
    },
    {
      "uri": "textures/119db3ea-1265-49bc-8e84-5c51220a31fc_specularGlossiness.jpeg"
    },
    {
      "uri": "textures/119db3ea-1265-49bc-8e84-5c51220a31fc_normal.png"
    },
    {
      "uri": "textures/36feecf6-4c99-45f3-b24c-ad1cf28e2796_diffuse.png"
    },
    {
      "uri": "textures/36feecf6-4c99-45f3-b24c-ad1cf28e2796_specularGlossiness.jpeg"
    },
    {
      "uri": "textures/36feecf6-4c99-45f3-b24c-ad1cf28e2796_normal.png"
    },
    {
      "uri": "textures/aa8a360a-f76f-4509-876a-c620b0d6d171_diffuse.jpeg"
    },
    {
      "uri": "textures/aa8a360a-f76f-4509-876a-c620b0d6d171_specularGlossiness.jpeg"
    },
    {
      "uri": "textures/aa8a360a-f76f-4509-876a-c620b0d6d171_normal.png"
    },
    {
      "uri": "textures/f65b0571-ba1f-483a-8d7e-f14d7d4d5ec9_diffuse.png"
    },
    {
      "uri": "textures/f65b0571-ba1f-483a-8d7e-f14d7d4d5ec9_specularGlossiness.jpeg"
    },
    {
      "uri": "textures/f65b0571-ba1f-483a-8d7e-f14d7d4d5ec9_normal.png"
    },
    {
      "uri": "textures/ff54e7d0-f1bc-4bf7-aa1b-ed923660187e_diffuse.jpeg"
    },
    {
      "uri": "textures/ff54e7d0-f1bc-4bf7-aa1b-ed923660187e_specularGlossiness.jpeg"
    },
    {
      "uri": "textures/ff54e7d0-f1bc-4bf7-aa1b-ed923660187e_normal.png"
    }
  ],
  "materials": [
    {
      "alphaMode": "BLEND",
      "doubleSided": true,
      "extensions": {
        "KHR_materials_pbrSpecularGlossiness": {
          "diffuseFactor": [
            1.0,
            1.0,
            1.0,
            1.0
          ],
          "diffuseTexture": {
            "index": 0
          },
          "glossinessFactor": 0.11748543542989995,
          "specularFactor": [
            0.05,
            0.05,
            0.05
          ],
          "specularGlossinessTexture": {
            "index": 1
          }
        }
      },
      "name": "119db3ea-1265-49bc-8e84-5c51220a31fc",
      "normalTexture": {
        "index": 2
      }
    },
    {
      "alphaMode": "BLEND",
      "doubleSided": true,
      "extensions": {
        "KHR_materials_pbrSpecularGlossiness": {
          "diffuseFactor": [
            1.0,
            1.0,
            1.0,
            1.0
          ],
          "diffuseTexture": {
            "index": 3
          },
          "glossinessFactor": 0.11748543542989995,
          "specularFactor": [
            0.05,
            0.05,
            0.05
          ],
          "specularGlossinessTexture": {
            "index": 4
          }
        }
      },
      "name": "36feecf6-4c99-45f3-b24c-ad1cf28e2796",
      "normalTexture": {
        "index": 5
      }
    },
    {
      "alphaMode": "BLEND",
      "doubleSided": true,
      "extensions": {
        "KHR_materials_pbrSpecularGlossiness": {
          "diffuseFactor": [
            1.0,
            1.0,
            1.0,
            1.0
          ],
          "diffuseTexture": {
            "index": 3
          },
          "glossinessFactor": 0.11748543542989995,
          "specularFactor": [
            0.05,
            0.05,
            0.05
          ],
          "specularGlossinessTexture": {
            "index": 4
          }
        }
      },
      "name": "a4037ca3-a190-4041-8bd3-e62713d13eef",
      "normalTexture": {
        "index": 5
      }
    },
    {
      "doubleSided": true,
      "extensions": {
        "KHR_materials_pbrSpecularGlossiness": {
          "diffuseFactor": [
            1.0,
            1.0,
            1.0,
            1.0
          ],
          "diffuseTexture": {
            "index": 6
          },
          "glossinessFactor": 0.11748543542989995,
          "specularFactor": [
            0.05,
            0.05,
            0.05
          ],
          "specularGlossinessTexture": {
            "index": 7
          }
        }
      },
      "name": "aa8a360a-f76f-4509-876a-c620b0d6d171",
      "normalTexture": {
        "index": 8
      }
    },
    {
      "alphaMode": "BLEND",
      "doubleSided": true,
      "extensions": {
        "KHR_materials_pbrSpecularGlossiness": {
          "diffuseFactor": [
            1.0,
            1.0,
            1.0,
            1.0
          ],
          "diffuseTexture": {
            "index": 9
          },
          "glossinessFactor": 0.11748543542989995,
          "specularFactor": [
            0.05,
            0.05,
            0.05
          ],
          "specularGlossinessTexture": {
            "index": 10
          }
        }
      },
      "name": "f65b0571-ba1f-483a-8d7e-f14d7d4d5ec9",
      "normalTexture": {
        "index": 11
      }
    },
    {
      "doubleSided": true,
      "extensions": {
        "KHR_materials_pbrSpecularGlossiness": {
          "diffuseFactor": [
            1.0,
            1.0,
            1.0,
            1.0
          ],
          "diffuseTexture": {
            "index": 12
          },
          "glossinessFactor": 0.11748543542989995,
          "specularFactor": [
            0.05,
            0.05,
            0.05
          ],
          "specularGlossinessTexture": {
            "index": 13
          }
        }
      },
      "name": "ff54e7d0-f1bc-4bf7-aa1b-ed923660187e",
      "normalTexture": {
        "index": 14
      }
    }
  ],
  "meshes": [
    {
      "name": "Object_0",
      "primitives": [
        {
          "attributes": {
            "NORMAL": 1,
            "POSITION": 0,
            "TANGENT": 2,
            "TEXCOORD_0": 3
          },
          "indices": 4,
          "material": 0,
          "mode": 4
        }
      ]
    },
    {
      "name": "Object_1",
      "primitives": [
        {
          "attributes": {
            "NORMAL": 6,
            "POSITION": 5,
            "TANGENT": 7,
            "TEXCOORD_0": 8
          },
          "indices": 9,
          "material": 1,
          "mode": 4
        }
      ]
    },
    {
      "name": "Object_2",
      "primitives": [
        {
          "attributes": {
            "NORMAL": 11,
            "POSITION": 10,
            "TANGENT": 12,
            "TEXCOORD_0": 13
          },
          "indices": 14,
          "material": 2,
          "mode": 4
        }
      ]
    },
    {
      "name": "Object_3",
      "primitives": [
        {
          "attributes": {
            "NORMAL": 16,
            "POSITION": 15,
            "TANGENT": 17,
            "TEXCOORD_0": 18
          },
          "indices": 19,
          "material": 3,
          "mode": 4
        }
      ]
    },
    {
      "name": "Object_4",
      "primitives": [
        {
          "attributes": {
            "NORMAL": 21,
            "POSITION": 20,
            "TANGENT": 22,
            "TEXCOORD_0": 23
          },
          "indices": 24,
          "material": 4,
          "mode": 4
        }
      ]
    },
    {
      "name": "Object_5",
      "primitives": [
        {
          "attributes": {
            "NORMAL": 26,
            "POSITION": 25,
            "TANGENT": 27,
            "TEXCOORD_0": 28
          },
          "indices": 29,
          "material": 4,
          "mode": 4
        }
      ]
    },
    {
      "name": "Object_6",
      "primitives": [
        {
          "attributes": {
            "NORMAL": 31,
            "POSITION": 30,
            "TANGENT": 32,
            "TEXCOORD_0": 33
          },
          "indices": 34,
          "material": 5,
          "mode": 4
        }
      ]
    }
  ],
  "nodes": [
    {
      "children": [
        1
      ],
      "matrix": [
        1.0,
        0.0,
        0.0,
        0.0,
        0.0,
        2.220446049250313e-16,
        -1.0,
        0.0,
        0.0,
        1.0,
        2.220446049250313e-16,
        0.0,
        0.0,
        0.0,
        0.0,
        1.0
      ],
      "name": "Sketchfab_model"
    },
    {
      "children": [
        2,
        3,
        4,
        5,
        6,
        7,
        8
      ],
      "name": "Nemesis.obj.cleaner.materialmerger.gles"
    },
    {
      "mesh": 0,
      "name": "Object_2"
    },
    {
      "mesh": 1,
      "name": "Object_3"
    },
    {
      "mesh": 2,
      "name": "Object_4"
    },
    {
      "mesh": 3,
      "name": "Object_5"
    },
    {
      "mesh": 4,
      "name": "Object_6"
    },
    {
      "mesh": 5,
      "name": "Object_7"
    },
    {
      "mesh": 6,
      "name": "Object_8"
    }
  ],
  "samplers": [
    {
      "magFilter": 9729,
      "minFilter": 9987,
      "wrapS": 10497,
      "wrapT": 10497
    }
  ],
  "scene": 0,
  "scenes": [
    {
      "name": "Sketchfab_Scene",
      "nodes": [
        0
      ]
    }
  ],
  "textures": [
    {
      "sampler": 0,
      "source": 0
    },
    {
      "sampler": 0,
      "source": 1
    },
    {
      "sampler": 0,
      "source": 2
    },
    {
      "sampler": 0,
      "source": 3
    },
    {
      "sampler": 0,
      "source": 4
    },
    {
      "sampler": 0,
      "source": 5
    },
    {
      "sampler": 0,
      "source": 6
    },
    {
      "sampler": 0,
      "source": 7
    },
    {
      "sampler": 0,
      "source": 8
    },
    {
      "sampler": 0,
      "source": 9
    },
    {
      "sampler": 0,
      "source": 10
    },
    {
      "sampler": 0,
      "source": 11
    },
    {
      "sampler": 0,
      "source": 12
    },
    {
      "sampler": 0,
      "source": 13
    },
    {
      "sampler": 0,
      "source": 14
    }
  ]
}
